HIERARCHY
ROOT Hips
{
  OFFSET -31.5692 30.0904 122.763
  CHANNELS 6 Xposition Yposition Zposition Zrotation Xrotation Yrotation
  JOINT LeftUpLeg
  {
    OFFSET 8.64259 1.95398 -2.38835
    CHANNELS 3 Zrotation Xrotation Yrotation
    JOINT LeftLeg
    {
      OFFSET 43.7702 0 0
      CHANNELS 3 Zrotation Xrotation Yrotation
      JOINT LeftFoot
      {
        OFFSET 40.6238 0 0
        CHANNELS 3 Zrotation Xrotation Yrotation
        JOINT LeftToeBase
        {
          OFFSET 12.7242 0 0
          CHANNELS 3 Zrotation Xrotation Yrotation
          End Site
          {
            OFFSET 0 0 0
          }
        }
      }
    }
  }
  JOINT RightUpLeg
  {
    OFFSET -8.2249 1.95398 -2.59336
    CHANNELS 3 Zrotation Xrotation Yrotation
    JOINT RightLeg
    {
      OFFSET 43.5653 0 0
      CHANNELS 3 Zrotation Xrotation Yrotation
      JOINT RightFoot
      {
        OFFSET 40.6238 0 0
        CHANNELS 3 Zrotation Xrotation Yrotation
        JOINT RightToeBase
        {
          OFFSET 12.7242 0 0
          CHANNELS 3 Zrotation Xrotation Yrotation
          End Site
          {
            OFFSET 0 0 0
          }
        }
      }
    }
  }
  JOINT Spine
  {
    OFFSET 0.165834 0.87714 6.61349
    CHANNELS 3 Zrotation Xrotation Yrotation
    JOINT Spine1
    {
      OFFSET 7.38963 1.71661e-005 0
      CHANNELS 3 Zrotation Xrotation Yrotation
      JOINT Spine2
      {
        OFFSET 11.9445 1.14441e-005 0
        CHANNELS 3 Zrotation Xrotation Yrotation
        JOINT Spine3
        {
          OFFSET 14.7254 4.19617e-005 0
          CHANNELS 3 Zrotation Xrotation Yrotation
          JOINT Spine4
          {
            OFFSET 10.9679 0 0
            CHANNELS 3 Zrotation Xrotation Yrotation
            JOINT RightShoulder
            {
              OFFSET 2.46616 -1.6653 3.69651
              CHANNELS 3 Zrotation Xrotation Yrotation
              JOINT RightArm
              {
                OFFSET 13.0012 0 0
                CHANNELS 3 Zrotation Xrotation Yrotation
                JOINT RightForeArm
                {
                  OFFSET 28.7848 1.62311e-005 0
                  CHANNELS 3 Zrotation Xrotation Yrotation
                  JOINT RightHand
                  {
                    OFFSET 26.5688 1.62095e-005 0
                    CHANNELS 3 Zrotation Xrotation Yrotation
                    End Site
                    {
                      OFFSET 0 0 0
                    }
                  }
                }
              }
            }
            JOINT LeftShoulder
            {
              OFFSET 2.38034 -1.29275 -3.7523
              CHANNELS 3 Zrotation Xrotation Yrotation
              JOINT LeftArm
              {
                OFFSET 16.3182 6.07031e-005 0
                CHANNELS 3 Zrotation Xrotation Yrotation
                JOINT LeftForeArm
                {
                  OFFSET 27.0901 0 0
                  CHANNELS 3 Zrotation Xrotation Yrotation
                  JOINT LeftHand
                  {
                    OFFSET 24.5451 1.51738e-005 0
                    CHANNELS 3 Zrotation Xrotation Yrotation
                    End Site
                    {
                      OFFSET 0 0 0
                    }
                  }
                }
              }
            }
            JOINT Neck
            {
              OFFSET 5.0226 -0.0266342 0
              CHANNELS 3 Zrotation Xrotation Yrotation
              JOINT Head
              {
                OFFSET 6.69364 2.86102e-005 0
                CHANNELS 3 Zrotation Xrotation Yrotation
                End Site
                {
                  OFFSET 0 0 0
                }
              }
            }
          }
        }
      }
    }
  }
}
MOTION
Frames:	18
Frame Time:	0.0416667
42.1635 91.7616 -207.675 -165.104 -86.8455 -159.777 -164.807 3.54997 100.173 -85.5411 5.84584 3.44714 62.634 -0.634226 5.23011 26.8908 1.03008 -5.5959 177.443 34.6586 102.331 -53.4755 -17.4468 0.420452 69.5465 -6.34379 -6.58184 18.3855 2.97755 6.3336 -1.90669 7.96098 -91.4464 10.9022 -4.46483 -2.45661 -0.762981 -4.56858 -2.25749 -23.3214 -3.52046 -3.6852 -3.30872 -3.52047 -3.68521 94.1401 -29.3072 -98.6484 37.3052 7.90057 26.2776 -47.4617 -40.8963 -67.8246 -54.238 15.6481 -46.5872 -90.8993 -50.968 77.6055 -9.22152 18.9634 -25.6615 75.4863 38.2909 -77.7264 46.7197 -10.1859 -17.6759 19.708 13.5422 2.03078 -15.5416 12.1791 3.15428 
41.6656 91.4059 -200.726 -177.361 -85.7944 -168.209 -167.777 14.7955 103.069 -94.8123 7.19013 4.94474 65.7703 2.07499 8.19037 22.9251 1.26619 -10.6851 176.18 29.4597 106.261 -55.6737 -16.2443 1.72966 73.6851 -9.9338 -7.13656 19.6215 2.0602 7.72522 -1.49446 8.25244 -91.8565 10.3022 -3.82612 -3.35646 -1.36704 -3.97006 -3.18483 -23.8921 -2.64154 -4.35018 -3.87945 -2.64154 -4.35019 93.5485 -31.5951 -99.227 36.8602 9.11636 14.9903 -30.4846 -28.8014 -57.0756 -33.327 2.85209 -24.5044 -91.449 -53.6715 77.4122 -14.1579 16.7928 -15.405 79.8375 40.8062 -75.6262 43.7409 -12.9763 -25.89 21.4852 12.6253 2.44433 -14.8906 11.1116 3.10406 
41.675 91.0355 -193.506 170.921 -85.2527 -179.854 -172.565 24.1375 101.761 -98.5486 7.95104 5.39266 68.609 4.42843 8.8504 20.254 0.0902622 -10.1549 175.487 24.3482 106.293 -58.1561 -16.3064 1.95089 78.5495 -13.7655 -8.10868 20.246 1.63257 8.36041 -1.2053 8.33145 -91.9181 10.1475 -3.27606 -3.53172 -1.52368 -3.42824 -3.38421 -24.036 -2.06433 -4.35188 -4.02338 -2.06433 -4.35188 92.6848 -31.5798 -100.929 35.0112 11.3543 4.87624 -30.2411 -23.9135 -59.4128 -30.6939 3.88205 -27.0286 -90.7967 -54.0498 78.4252 -19.2434 14.3538 -3.65558 76.6193 38.6473 -72.8077 46.3273 -12.9766 -23.7931 20.6625 11.3734 3.57305 -12.9429 9.66474 2.57362 
41.9453 90.9397 -186.199 170.77 -85.5516 177.983 -175.56 32.3408 98.5733 -96.3905 7.4755 5.20301 70.9118 6.16532 9.21235 20.8312 0.157833 -9.77744 175.301 19.2109 103.996 -59.307 -16.1065 1.22105 83.2712 -17.2131 -7.68903 21.7478 1.33145 7.29386 -0.756892 8.23301 -91.6954 10.3652 -2.28393 -3.16939 -1.30736 -2.42114 -3.06592 -23.8176 -1.22656 -3.7086 -3.80497 -1.22655 -3.70861 92.1983 -31.1802 -102.006 34.3016 3.6405 -3.0441 -26.1241 -23.5456 -58.4913 -40.4255 4.84796 -24.2273 -89.542 -53.8312 80.1775 -21.7297 13.8498 7.37736 74.5893 35.3921 -71.9393 49.0613 -13.5402 -22.9338 19.3426 9.21622 2.55277 -12.0445 7.87339 3.72181 
42.3344 91.6515 -178.36 -171.58 -85.2896 -166.639 -176.448 37.0175 95.6365 -88.0426 4.3825 4.67443 73.2091 7.46991 8.29074 21.0138 -0.45562 -8.05016 175.22 11.8678 100.837 -57.0319 -18.7002 0.0471359 84.8358 -18.7943 -7.95006 22.9947 0.642476 8.05784 0.0365265 8.10272 -91.3006 10.6555 -0.525892 -2.53769 -1.01776 -0.637028 -2.51211 -23.5331 0.260835 -2.57842 -3.52044 0.26083 -2.57842 92.2624 -29.4899 -102.411 32.7928 -0.752802 -6.54703 -29.9871 -22.8205 -65.4158 -46.7595 4.02909 -19.9419 -88.0456 -52.1141 82.0325 -21.3014 16.6065 17.2291 71.4478 29.9195 -69.1535 49.5952 -14.7028 -25.0211 16.5346 6.39087 -0.878313 -10.3009 6.12248 5.66295 
42.7402 92.8985 -170.302 -152.833 -83.6278 -150.167 -176.659 38.3396 93.8113 -75.5103 1.72003 3.74276 72.3713 6.92104 7.76636 21.7758 -0.0530753 -8.3056 174.491 3.85824 97.1322 -54.4288 -22.0762 -1.50321 82.8814 -17.8106 -9.2682 26.8822 -1.06025 9.01838 0.885515 8.05782 -90.9398 10.7651 1.32995 -1.99123 -0.906829 1.24104 -2.04781 -23.4396 1.86683 -1.49958 -3.4269 1.86683 -1.49959 91.9816 -26.1361 -104.165 30.5671 6.35212 -6.04289 -28.7617 -17.1033 -67.6992 -37.4862 5.51048 -27.343 -86.4867 -51.5393 84.2357 -17.7704 20.1421 24.2067 69.3927 26.5177 -68.641 50.2135 -14.9455 -25.2357 13.97 4.37468 -2.40447 -9.18746 4.62728 5.35901 
43.2177 94.3861 -161.233 -146.357 -81.1143 -145.905 -177.355 35.3772 92.6568 -59.8687 0.714041 2.908 70.1969 6.00723 6.57681 22.3733 -0.071666 -7.64102 172.438 -5.01878 93.2025 -49.6837 -25.7389 -3.13974 78.9612 -14.5043 -8.58772 30.3395 -2.50162 9.93052 1.78826 8.15428 -90.5723 10.5928 3.29863 -1.43228 -1.07498 3.2324 -1.57618 -23.643 3.57647 -0.37357 -3.63036 3.57647 -0.373578 92.4297 -22.5149 -104.521 28.9583 8.55126 -3.6458 -26.2065 -13.0343 -70.0621 -36.3559 6.45108 -30.2225 -85.9526 -48.9099 84.627 -15.3397 22.8285 29.5262 68.5164 23.8345 -67.8394 50.1968 -15.4516 -26.331 13.002 2.61536 -4.2746 -8.63085 3.46543 3.70821 
43.5541 95.5591 -151.909 -141.739 -79.4011 -143.544 -178.136 30.5385 91.9774 -41.7004 3.95297 2.14245 66.0994 4.70669 5.17714 24.1082 -1.08667 -2.99133 169.024 -12.6601 85.1131 -44.3468 -31.2608 -5.29239 74.1139 -10.173 -6.41643 31.1925 -3.04375 11.3467 2.51447 8.19587 -90.2171 10.5064 4.9089 -0.86842 -1.15575 4.86593 -1.08413 -23.765 4.94237 0.650757 -3.75233 4.94238 0.650753 92.7311 -19.0825 -105.308 26.5697 7.99786 -0.116442 -26.1581 -10.7711 -74.2757 -34.667 6.56459 -31.7845 -85.8362 -44.7672 84.1834 -15.0327 22.7868 34.6822 69.2062 20.7346 -67.2794 49.9135 -16.5717 -28.6646 11.6241 1.16674 -7.07219 -7.32547 2.71033 3.95087 
43.8842 96.0473 -142.407 -135.339 -77.9892 -139.717 -178.824 24.0214 91.5497 -21.1556 7.06318 1.37118 59.3551 2.81109 2.22745 25.9117 -0.395434 -2.69455 165.811 -18.4664 78.998 -42.0218 -36.8954 -9.22394 70.6874 -7.0341 -4.35242 26.8657 -1.10753 9.27119 3.06865 8.11884 -89.8355 10.655 6.18719 -0.235717 -1.00122 6.17079 -0.508859 -23.6494 5.9709 1.64152 -3.63677 5.97092 1.64151 92.924 -15.6371 -106.417 23.8244 6.72628 3.29285 -26.2787 -9.7013 -76.5175 -34.1749 7.02749 -33.8079 -85.0118 -38.9256 84.5907 -16.8429 21.9368 39.9933 68.567 18.1907 -66.5744 51.9866 -17.7331 -29.2372 8.4959 0.525473 -9.75456 -5.19384 2.5296 4.52745 
43.7905 95.8202 -133.527 -123.072 -76.3991 -127.453 -178.668 20.8827 94.2927 -7.4049 12.1112 0.903418 54.352 1.13579 -0.589921 25.8536 -1.83263 1.15424 167.088 -21.5144 78.5062 -42.948 -33.8639 -12.2423 70.8097 -6.66158 -4.85546 20.9917 1.06648 9.37226 3.56775 7.82151 -89.7692 11.2581 7.20779 -0.253673 -0.392829 7.18961 -0.572323 -23.0814 6.94911 1.93509 -3.0688 6.94911 1.93508 93.5346 -11.0023 -107.244 22.6866 4.38515 5.53112 -24.9952 -8.30335 -78.0332 -32.4352 7.1335 -35.5436 -82.6072 -32.9949 88.0195 -18.5753 20.4369 43.4939 70.8647 15.7777 -67.5795 51.7205 -18.7851 -31.244 5.52397 0.963885 -10.0477 -2.9879 2.84585 3.53365 
43.6251 95.4053 -124.89 -115.089 -73.9558 -118.802 -178.667 21.8287 97.2747 -8.87253 18.5296 1.92613 55.8483 0.91324 -0.628198 21.25 -5.48356 4.35761 167.97 -23.3741 78.2368 -43.3662 -23.4919 -12.5463 73.7371 -8.29005 -5.33756 20.3907 1.87667 7.30843 3.88596 7.55359 -89.7791 11.8055 7.8322 -0.39005 0.158094 7.80741 -0.736525 -22.5597 7.58513 1.99591 -2.5471 7.58512 1.9959 94.1232 -7.54452 -107.586 23.8408 2.71367 7.72908 -18.6047 -4.70151 -79.5589 -28.3798 7.52018 -39.7129 -81.2163 -27.1807 90.0228 -20.8952 18.1076 48.8433 70.7066 12.3832 -67.1934 51.6397 -19.7752 -33.1216 3.09253 1.80872 -10.2846 -0.677095 3.55697 2.57825 
43.4358 94.3539 -116.242 -113.267 -72.0981 -115.636 -177.438 19.3592 100.199 -7.7092 22.5775 1.37355 53.5844 0.461378 -0.54948 19.8482 -5.60614 2.88315 167.959 -23.5255 78.3572 -46.8502 -10.3908 -11.3612 76.7872 -9.30395 -5.42341 16.6514 3.26508 7.68252 3.86066 7.418 -89.8713 12.084 7.73594 -0.592185 0.435927 7.70233 -0.934137 -22.2793 7.55411 1.77394 -2.26666 7.55411 1.77393 93.9352 -7.95502 -107.899 25.433 2.51912 10.6351 -12.687 -0.802114 -83.975 -25.3392 7.58017 -42.0041 -80.8992 -25.1875 90.4523 -21.6968 13.1149 53.8499 69.1461 9.33589 -66.8939 50.6925 -21.2652 -36.6183 2.98388 2.80328 -11.0344 -0.0822397 4.66861 2.76711 
43.1221 93.0525 -107.888 -119.245 -70.5209 -120.736 -177.044 20.1265 101.042 -20.0609 22.5019 3.31315 53.1631 -1.8317 -3.65896 22.3146 -5.47769 5.69035 167.002 -23.4504 77.9839 -53.6562 0.775609 -9.99192 77.9219 -9.77817 -6.35052 16.2858 3.89692 6.21083 3.52006 7.57748 -89.9801 11.7607 7.01039 -0.700262 0.108338 6.97275 -1.00963 -22.5756 6.89512 1.44942 -2.56301 6.89514 1.44942 93.0824 -11.2884 -108.343 28.0475 3.03561 15.1853 -12.125 0.826543 -91.6388 -24.9116 7.56535 -42.215 -80.9391 -27.6305 90.6341 -20.8929 9.04955 54.5495 68.5739 8.53624 -68.6824 49.968 -21.1316 -37.0558 4.2543 4.27468 -10.6352 -0.570772 6.14701 2.75768 
42.7774 91.1998 -100.555 -122.739 -70.3749 -124.075 -176.743 20.9935 102.214 -31.1122 26.6136 4.72834 53.7237 -2.65261 -3.76408 43.0801 6.2482 1.92317 167.508 -19.239 79.6501 -66.0315 3.68281 -8.39022 77.7959 -10.4407 -10.3205 17.3294 3.33397 6.60079 3.07608 7.73034 -89.9944 11.4431 6.12315 -0.61066 -0.213671 6.09032 -0.880568 -22.8619 6.02251 1.26472 -2.84926 6.02252 1.26472 93.357 -14.5716 -105.832 33.3967 0.719194 18.617 -14.7181 1.8162 -95.6429 -24.8362 6.86532 -40.092 -81.425 -33.272 90.2425 -19.0374 7.24451 47.3464 69.3705 13.0965 -70.4553 52.178 -20.2003 -33.3582 7.2548 5.40814 -10.0053 -0.767915 7.37647 2.89006 
42.3418 89.4081 -94.7598 -123.42 -72.3506 -128.556 -174.814 25.5642 98.7793 -44.6496 28.3209 2.91033 64.4452 3.40514 -1.17108 39.1682 3.59849 5.18625 168.282 -9.50185 80.1407 -81.8185 2.96764 -7.02589 80.8039 -11.2867 -7.52474 17.3545 3.36937 6.46282 2.18657 7.99743 -89.4393 10.8768 4.61301 0.690408 -0.785969 4.63894 0.486271 -23.3767 4.19181 2.04711 -3.36403 4.1918 2.0471 93.796 -19.6113 -102.567 39.1676 -2.53706 19.863 -17.6853 1.02727 -91.6346 -25.0928 6.67155 -39.9882 -82.1058 -44.4832 90.1919 -10.9099 5.03824 33.3191 67.5291 18.1551 -72.0511 50.4372 -18.8131 -32.3314 14.1619 7.27601 -9.46345 -3.2309 9.555 0.953739 
41.3575 89.254 -89.6209 -127.256 -71.1826 -136.875 -172.188 20.4956 95.6114 -45.3806 28.6401 0.975297 68.1867 5.44425 -2.07628 41.6186 4.91233 4.83812 169.768 -0.783334 80.5359 -93.1138 -3.29969 -6.64513 81.5002 -13.5042 -8.39694 16.8932 2.49676 9.79647 1.38354 8.51838 -88.7029 9.79988 3.34534 2.30824 -1.86854 3.44367 2.1587 -24.4088 2.4973 3.20673 -4.39616 2.4973 3.20674 93.4774 -23.7885 -101.723 44.4545 -4.55182 21.6829 -20.7534 -4.77722 -83.5859 -31.333 6.52942 -33.6997 -86.5514 -53.0243 84.362 -2.31879 3.50888 16.8734 66.1698 22.6919 -74.2587 49.1418 -16.2119 -28.7043 20.8271 9.21128 -11.0605 -8.28482 12.3497 1.16479 
40.1865 89.2914 -84.6493 -125.972 -68.5872 -135.882 -170.16 15.6113 96.4906 -46.4427 28.7745 0.317981 69.9311 6.48416 -0.576904 47.0997 7.87011 3.00061 172.345 8.10131 84.905 -98.7364 -6.33078 -5.77125 80.915 -14.2261 -8.25801 19.7401 0.692095 12.406 0.859896 8.6779 -88.4424 9.47866 2.41591 2.90526 -2.19306 2.54138 2.79618 -24.7099 1.43168 3.49642 -4.69723 1.43168 3.49642 93.2899 -25.4708 -101.576 49.4787 -6.05498 24.9685 -12.7903 -7.03637 -72.9415 -34.2079 6.56332 -29.9579 -91.0285 -55.3563 78.3717 3.64002 1.42947 -0.340825 67.0938 29.6345 -73.3251 52.4776 -16.1097 -25.8055 18.1933 12.6903 -12.0307 -6.04764 15.7404 2.25302 
38.9618 89.0156 -79.6847 -124.124 -67.8307 -133.95 -168.472 12.7941 97.3601 -48.8172 27.6295 -0.0783058 76.2581 10.9396 0.339333 43.7536 6.43649 2.1181 171.949 17.6594 89.7156 -98.7597 -4.47968 -4.34835 82.2606 -14.6701 -6.7744 20.4184 1.01774 10.3513 0.144162 8.57318 -88.2967 9.70034 1.05759 3.29562 -1.97425 1.20153 3.24595 -24.4758 0.0188834 3.46093 -4.46319 0.0188828 3.46093 93.7557 -25.0412 -100.704 50.9987 -8.23629 28.8764 -12.0591 -11.3579 -65.894 -31.3658 6.05015 -31.2982 -90.4984 -55.483 79.1464 7.82364 -0.306462 -15.3733 65.588 30.8749 -72.7712 50.9876 -14.2275 -23.5218 15.1338 16.5111 -9.86361 -4.05594 18.6137 0.557934 
